# xmcd
#
# Track frame offsets:
#	150
#	17260
#	31330
#	47355
#	63387
#	80492
#	99957
#	114580
#	127450
#	145342
#
# Disc length: 2273 seconds
#
# Revision: 3
# Processed by: cddbd v1.5.1PL0 Copyright (c) Steve Scherf et al.
# Submitted via: MusicManager 7.3.0.0 
#
DISCID=7e08df0a
DTITLE=Wynonna Judd - Tell Me Why
DYEAR=1993
DGENRE=Country
TTITLE0=Tell Me Why
TTITLE1=Rock Bottom
TTITLE2=Only Love
TTITLE3=Let's Make A Baby King
TTITLE4=Is It Over Yet
TTITLE5=Father Sun
TTITLE6=Girls With Guitars
TTITLE7=Just Like New
TTITLE8=I Just Drove By
TTITLE9=That Was Yesterday
EXTD=YEAR: 1993
EXTT0=
EXTT1=
EXTT2=
EXTT3=
EXTT4=
EXTT5=
EXTT6=
EXTT7=
EXTT8=
EXTT9=
PLAYORDER=
